<svg width="76" height="81" viewBox="0 0 76 81" fill="none" xmlns="http://www.w3.org/2000/svg">
<path d="M33.2095 29.6939C33.2095 29.6939 28.6721 16.4267 21.0439 14.742" stroke="#E8711A" stroke-width="1.6" stroke-linecap="round" stroke-linejoin="round"/>
<path d="M53.1593 68.5664C64.2706 61.9367 67.9037 47.5548 61.274 36.4435C54.6443 25.3322 40.2624 21.6991 29.151 28.3288C18.0397 34.9585 14.4067 49.3404 21.0364 60.4518C27.6661 71.5631 42.048 75.1961 53.1593 68.5664Z" fill="#E8711A" stroke="#E8711A" stroke-width="1.6" stroke-miterlimit="10"/>
<path d="M30.6415 49.7413C29.6473 50.3345 28.4995 50.6196 27.3433 50.5604C26.1871 50.5013 25.0744 50.1007 24.1459 49.4092C23.2174 48.7176 22.5148 47.7663 22.1269 46.6755C21.7391 45.5847 21.6834 44.4034 21.967 43.2809C22.2505 42.1585 22.8605 41.1453 23.7199 40.3695C24.5793 39.5938 25.6494 39.0903 26.7949 38.9227C27.9404 38.7551 29.1099 38.931 30.1555 39.4281C31.2011 39.9251 32.0757 40.7211 32.6689 41.7153C33.4632 43.0488 33.6957 44.6429 33.3156 46.1477C32.9355 47.6525 31.9737 48.945 30.6415 49.7413Z" fill="white"/>
<path d="M29.8933 20.7419C24.6328 13.9328 32.7905 1.64217 43.2601 1.73356C39.9511 11.6898 43.2572 19.9765 29.8933 20.7419Z" fill="#05909A" stroke="#E8711A" stroke-width="1.6" stroke-miterlimit="10"/>
</svg>
